PathFileType	4	(X/Y/Z)	/Users/itak/Documents/Research/Walk-IL/dataset/trc/00263_00009.trc
DataRate	CameraRate	NumFrames	NumMarkers	Units	OrigDataRate	OrigDataStartFrame	OrigNumFrames
100.000000	100.000000	4	53	mm	100.000000	332	380
Frame#	Time	RPSI			LPSI			L3			STRN			T10			C7			CLAV			RBAK			LBAK			LSHO			LUPA			LAEL			LAOL			LWTS			LWPS			LFRA			LIFD			LHPS			LHTS			RSHO			RUPA			RAEL			RAOL			RWTS			RWPS			RFRA			RIFD			RHTS			RHPS			RBHD			LFHD			RFHD			LBHD			LHIP			RHIP			RASI			LASI			LKNE			LTHI			LANK			LTIP			LTOE			LMT1			LMT5			LHEE			RKNE			RTHI			RTIP			RTOE			RMT1			RMT5			RHEE			RANK			
		X1	Y1	Z1	X2	Y2	Z2	X3	Y3	Z3	X4	Y4	Z4	X5	Y5	Z5	X6	Y6	Z6	X7	Y7	Z7	X8	Y8	Z8	X9	Y9	Z9	X10	Y10	Z10	X11	Y11	Z11	X12	Y12	Z12	X13	Y13	Z13	X14	Y14	Z14	X15	Y15	Z15	X16	Y16	Z16	X17	Y17	Z17	X18	Y18	Z18	X19	Y19	Z19	X20	Y20	Z20	X21	Y21	Z21	X22	Y22	Z22	X23	Y23	Z23	X24	Y24	Z24	X25	Y25	Z25	X26	Y26	Z26	X27	Y27	Z27	X28	Y28	Z28	X29	Y29	Z29	X30	Y30	Z30	X31	Y31	Z31	X32	Y32	Z32	X33	Y33	Z33	X34	Y34	Z34	X35	Y35	Z35	X36	Y36	Z36	X37	Y37	Z37	X38	Y38	Z38	X39	Y39	Z39	X40	Y40	Z40	X41	Y41	Z41	X42	Y42	Z42	X43	Y43	Z43	X44	Y44	Z44	X45	Y45	Z45	X46	Y46	Z46	X47	Y47	Z47	X48	Y48	Z48	X49	Y49	Z49	X50	Y50	Z50	X51	Y51	Z51	X52	Y52	Z52	X53	Y53	Z53	

333	3.32	-108.5680236816406	1040.326782226562	-344.6138305664062	-228.0487213134766	1045.967895507812	-355.7285766601562	-187.7160491943359	1126.23291015625	-344.3993530273438	-172.7812957763672	1314.054077148438	-596.5584716796875	-183.9190216064453	1253.83984375	-343.6659851074219	-186.9726104736328	1515.299438476562	-405.7339782714844	-173.2494049072266	1431.347778320312	-569.8881225585938	-119.4311676025391	1375.749755859375	-325.6860656738281	-297.4025573730469	1476.85302734375	-391.6354064941406	-346.8886108398438	1477.963989257812	-483.93994140625	-427.58740234375	1360.41748046875	-460.5724792480469	-457.6244506835938	1151.869262695312	-484.4971313476562	-414.8687438964844	1129.216552734375	-410.8409118652344	-376.5702514648438	945.5931396484375	-613.3033447265625	-458.7210998535156	920.8546752929688	-600.695556640625	-464.9916076660156	1050.221801757812	-526.2406616210938	-373.7907409667969	756.9776611328125	-657.7575073242188	-447.3263549804688	838.6865844726562	-635.843017578125	-389.6150817871094	854.4212036132812	-669.5687866210938	-13.65086555480957	1475.318359375	-450.1927795410156	49.58359527587891	1409.448364257812	-426.0748596191406	94.76005554199219	1130.621704101562	-405.4501953125	1.93273401260376	1121.719848632812	-384.6740112304688	70.43934631347656	923.8212890625	-558.15185546875	129.38525390625	906.8004760742188	-500.4200744628906	111.7306213378906	1063.624633789062	-434.433837890625	65.43116760253906	733.058349609375	-584.3423461914062	90.47383880615234	805.9388427734375	-604.1634521484375	136.3450164794922	802.477294921875	-547.2695922851562	-130.8794250488281	1675.473999023438	-455.1356811523438	-218.5064849853516	1707.162475585938	-662.3295288085938	-118.143928527832	1706.604858398438	-658.019775390625	-262.0220336914062	1679.856323242188	-505.8151550292969	-363.1747436523438	985.8543090820312	-468.1549987792969	5.031862735748291	1004.327575683594	-435.9226989746094	-27.62439918518066	1049.341796875	-533.2566528320312	-306.3182678222656	1029.181396484375	-563.388671875	-294.4758605957031	506.0390014648438	-535.5841674804688	-326.3326110839844	647.8814086914062	-523.095703125	-258.9648132324219	31.90904235839844	-457.1580505371094	-285.3452453613281	277.0675964355469	-492.7379150390625	-194.5047607421875	40.24401473999023	-670.8125610351562	-154.6808319091797	35.93601989746094	-599.8844604492188	-270.716064453125	35.07758712768555	-585.0115356445312	-208.5105590820312	37.15530776977539	-393.6349487304688	-8.680522918701172	521.1439819335938	-557.2874755859375	23.26546096801758	787.1152954101562	-520.3446655273438	-21.67563056945801	399.0050048828125	-560.9542236328125	-61.72567367553711	64.67302703857422	-653.9666137695312	-108.6081237792969	53.94547271728516	-602.3282470703125	-0.7227861285209656	39.19192504882812	-554.4860229492188	-89.39968872070312	37.88178634643555	-386.5547485351562	-29.06210517883301	36.40286636352539	-447.35546875	
334	3.33	-107.8503799438477	1040.056396484375	-346.0580444335938	-227.3880310058594	1045.842529296875	-357.1732482910156	-186.9399108886719	1126.076904296875	-345.7359619140625	-172.1583099365234	1314.032348632812	-597.747314453125	-183.2309265136719	1253.662353515625	-344.911376953125	-186.3545989990234	1515.159423828125	-406.8035888671875	-172.6658630371094	1431.319580078125	-571.018310546875	-118.7543411254883	1375.56201171875	-326.8403625488281	-296.7709350585938	1476.6923828125	-392.6788940429688	-346.2608032226562	1477.797119140625	-484.9469909667969	-426.8874816894531	1360.167114257812	-461.4491577148438	-456.6914978027344	1151.519165039062	-484.95263671875	-413.8172302246094	1128.89794921875	-411.2190246582031	-375.9055786132812	944.5784912109375	-612.9151000976562	-458.05029296875	919.964599609375	-600.1122436523438	-464.1312255859375	1049.70654296875	-526.2623291015625	-373.2235107421875	755.70166015625	-656.2994995117188	-446.478271484375	837.58447265625	-634.7398681640625	-388.9451293945312	853.1065673828125	-668.6315307617188	-13.02074718475342	1475.239501953125	-451.3112487792969	50.21839904785156	1409.3935546875	-427.2151794433594	95.46334075927734	1130.572875976562	-406.5028991699219	2.613895654678345	1121.706665039062	-385.6514892578125	70.87342071533203	923.614013671875	-558.9541015625	129.9198303222656	906.6287231445312	-501.3091430664062	112.3674926757812	1063.5390625	-435.4591674804688	65.77418518066406	732.8316650390625	-584.933349609375	90.79180145263672	805.6621704101562	-604.8670654296875	136.7964782714844	802.2698974609375	-548.0308837890625	-130.4167175292969	1675.249389648438	-455.9563903808594	-218.1074523925781	1707.355224609375	-663.0504760742188	-117.755256652832	1706.853271484375	-658.7733764648438	-261.5491027832031	1679.635498046875	-506.5796203613281	-362.5228576660156	985.9352416992188	-469.5979919433594	5.555405139923096	1003.9921875	-437.5054016113281	-26.96977043151855	1049.230712890625	-534.7989501953125	-305.7299194335938	1029.232788085938	-564.8482055664062	-294.22265625	505.9799194335938	-536.1516723632812	-326.0832214355469	647.9020385742188	-524.0289916992188	-258.9371948242188	31.8958683013916	-457.1403503417969	-285.2562255859375	277.0884094238281	-492.9766540527344	-194.5114288330078	40.24468231201172	-670.8068237304688	-154.6748504638672	35.93169021606445	-599.8788452148438	-270.7236938476562	35.07548522949219	-584.999755859375	-208.4960632324219	37.14992141723633	-393.6073913574219	-8.822564125061035	520.8271484375	-558.0096435546875	23.77641105651855	786.7056884765625	-521.6171264648438	-21.92517852783203	398.7338256835938	-562.0032958984375	-62.40873718261719	61.95616912841797	-656.1266479492188	-109.1333160400391	52.11748123168945	-604.1528930664062	-1.061614394187927	38.15175247192383	-556.3140869140625	-89.50868988037109	38.0142822265625	-388.1719665527344	-29.25766181945801	36.03430938720703	-449.0738830566406	
335	3.34	-107.0650177001953	1039.787475585938	-347.5152893066406	-226.6846008300781	1045.714721679688	-358.6320190429688	-186.1182861328125	1125.898193359375	-347.0887756347656	-171.4853057861328	1314.023681640625	-598.9210815429688	-182.4686737060547	1253.459228515625	-346.1598815917969	-185.6874237060547	1515.012329101562	-407.83251953125	-172.0221557617188	1431.297973632812	-572.1165771484375	-118.0412445068359	1375.343627929688	-327.9700317382812	-296.1044921875	1476.515869140625	-393.693115234375	-345.5917358398438	1477.623413085938	-485.9212341308594	-426.1282348632812	1359.90625	-462.2866821289062	-455.6958312988281	1151.1572265625	-485.3495178222656	-412.7370910644531	1128.52099609375	-411.5673522949219	-375.2229309082031	943.5075073242188	-612.422607421875	-457.4177551269531	919.0198364257812	-599.3984375	-463.2601928710938	1049.168823242188	-526.1959228515625	-372.7140197753906	754.343994140625	-654.65869140625	-445.6635437011719	836.4219360351562	-633.4722290039062	-388.3435668945312	851.6993408203125	-667.5418701171875	-12.35404014587402	1475.153930664062	-452.3885192871094	50.89484786987305	1409.32958984375	-428.3082885742188	96.17076873779297	1130.505981445312	-407.5408325195312	3.323512315750122	1121.671875	-386.6242370605469	71.37253570556641	923.3793334960938	-559.7280883789062	130.5060272216797	906.4447021484375	-502.1508483886719	113.0195617675781	1063.434936523438	-436.461669921875	66.20063781738281	732.5936279296875	-585.489013671875	91.21378326416016	805.3585815429688	-605.5275268554688	137.3227386474609	802.048095703125	-548.7318725585938	-129.9039764404297	1675.028198242188	-456.7411499023438	-217.6651306152344	1707.557495117188	-663.73388671875	-117.3190612792969	1707.09033203125	-659.4960327148438	-261.0372314453125	1679.427368164062	-507.3120727539062	-361.728759765625	986.0067138671875	-471.0479736328125	6.130789756774902	1003.651550292969	-439.1156005859375	-26.25888824462891	1049.1083984375	-536.3795166015625	-305.107666015625	1029.290893554688	-566.3181762695312	-293.9174194335938	505.9142456054688	-536.7438354492188	-325.83447265625	647.9205932617188	-524.9985961914062	-258.9141845703125	31.88493537902832	-457.1241455078125	-285.1567687988281	277.1129760742188	-493.254150390625	-194.5207824707031	40.24757766723633	-670.8018188476562	-154.6720581054688	35.93062210083008	-599.8757934570312	-270.7320251464844	35.0733642578125	-584.989990234375	-208.4871063232422	37.14845657348633	-393.5784606933594	-9.040019035339355	520.4631958007812	-558.6497192382812	24.25141334533691	786.2638549804688	-522.8905639648438	-22.21820259094238	398.4254455566406	-562.8442993164062	-63.02516555786133	58.89533233642578	-657.9718627929688	-109.5771026611328	50.08322143554688	-605.6356811523438	-1.274159669876099	37.18026351928711	-557.6807861328125	-89.66100311279297	38.21897125244141	-389.4379577636719	-29.46485710144043	35.74326324462891	-450.3352355957031	
336	3.35	-106.2445907592773	1039.52490234375	-348.9991760253906	-225.9540252685547	1045.583862304688	-360.1078796386719	-185.2771759033203	1125.698608398438	-348.4686889648438	-170.7684478759766	1314.032836914062	-600.0814208984375	-181.6365051269531	1253.238037109375	-347.4049987792969	-184.9723052978516	1514.863647460938	-408.8244018554688	-171.3198394775391	1431.288330078125	-573.1849365234375	-117.2911605834961	1375.103393554688	-329.0782470703125	-295.3995971679688	1476.327880859375	-394.6783752441406	-344.8888549804688	1477.4453125	-486.8624267578125	-425.3136901855469	1359.639404296875	-463.08203125	-454.646484375	1150.790771484375	-485.6969909667969	-411.6260375976562	1128.114013671875	-411.89306640625	-374.5226135253906	942.3917846679688	-611.830078125	-456.822265625	918.0336303710938	-598.56298828125	-462.3889465332031	1048.614990234375	-526.0496826171875	-372.2588500976562	752.9197998046875	-652.8461303710938	-444.9120788574219	835.2139282226562	-632.0587158203125	-387.8095397949219	850.2136840820312	-666.31201171875	-11.65262508392334	1475.065795898438	-453.4307861328125	51.61337280273438	1409.260131835938	-429.3592834472656	96.87973785400391	1130.424682617188	-408.569091796875	4.063332080841064	1121.62158203125	-387.5977172851562	71.94384765625	923.1187133789062	-560.4763793945312	131.1476440429688	906.2545776367188	-502.9406127929688	113.687873840332	1063.316162109375	-437.4434204101562	66.72409057617188	732.33056640625	-586.0032958984375	91.74160766601562	805.0291748046875	-606.14453125	137.9251556396484	801.8082275390625	-549.3690795898438	-129.3422241210938	1674.816284179688	-457.490234375	-217.1800689697266	1707.7734375	-664.3814697265625	-116.8339157104492	1707.322021484375	-660.1873168945312	-260.4916687011719	1679.238647460938	-508.0143432617188	-360.8085327148438	986.0613403320312	-472.5115661621094	6.754759788513184	1003.319885253906	-440.7497863769531	-25.5180549621582	1048.96826171875	-537.984130859375	-304.4472961425781	1029.359497070312	-567.7972412109375	-293.5700988769531	505.8476867675781	-537.376220703125	-325.5667724609375	647.9332275390625	-526.0084838867188	-258.8959045410156	31.88004302978516	-457.112060546875	-285.05126953125	277.1462097167969	-493.5711364746094	-194.5301818847656	40.25148391723633	-670.7976684570312	-154.6731872558594	35.93204879760742	-599.8759765625	-270.7398986816406	35.07217407226562	-584.9827880859375	-208.4802398681641	37.15246963500977	-393.5508117675781	-9.314446449279785	520.0584716796875	-559.1748046875	24.71101379394531	785.8056030273438	-524.1207275390625	-22.53858757019043	398.0853881835938	-563.4633178710938	-63.52492523193359	55.69640731811523	-659.5319213867188	-109.9105529785156	47.99334716796875	-606.8240966796875	-1.334039568901062	36.33498764038086	-558.6339721679688	-89.85716247558594	38.40822601318359	-390.3956298828125	-29.6750545501709	35.50924301147461	-451.187255859375	
